<svg xmlns="http://www.w3.org/2000/svg" width="120" height="152" viewBox="0 0 120 152"><path d="M10.337 8.634H3.585V30H2V7.334h9.922V30h-1.586V8.634zm5.8 13.63c.043 2.2.35 3.874.92 5.026.57 1.15 1.437 1.727 2.6 1.727.528 0 .993-.084 1.395-.253.4-.17.738-.37 1.013-.603.317-.23.592-.515.824-.854l.475 1.205c-.254.36-.56.667-.92.92-.317.233-.708.44-1.172.62-.464.18-1.014.27-1.648.27-1.69 0-2.937-.73-3.74-2.19-.804-1.46-1.205-3.497-1.205-6.117 0-1.31.116-2.478.35-3.503.23-1.026.553-1.898.965-2.617.413-.718.904-1.262 1.475-1.632.57-.37 1.194-.553 1.87-.553.697 0 1.32.18 1.87.54.55.358 1.004.897 1.363 1.616.36.718.613 1.61.76 2.678.15 1.07.16 2.31.033 3.726h-7.228zm3.203-7.322c-.846 0-1.57.524-2.172 1.57-.602 1.046-.935 2.573-.998 4.58h5.8c.128-2.134-.078-3.693-.617-4.675-.54-.983-1.21-1.475-2.013-1.475zm11.285 14.17c1.014 0 1.828-.607 2.44-1.822.614-1.216.92-3.09.92-5.627 0-2.113-.264-3.75-.792-4.914-.53-1.164-1.258-1.745-2.188-1.745-.36 0-.702.09-1.03.27-.327.18-.634.417-.92.713-.284.294-.543.638-.776 1.03-.233.39-.434.797-.603 1.22v8.94c.317.654.708 1.14 1.173 1.457.465.317 1.056.475 1.775.475zm-.095 1.173c-.613 0-1.168-.132-1.664-.396-.497-.266-.893-.6-1.19-1v6.054h-1.49v-20.92h1.3l.128 2.63c.36-.76.835-1.44 1.427-2.044.593-.603 1.33-.904 2.22-.904.655 0 1.247.19 1.775.57.53.38.973.915 1.333 1.602.36.686.634 1.51.824 2.472.19.962.285 2.024.285 3.186 0 2.938-.454 5.13-1.363 6.578-.91 1.447-2.104 2.17-3.583 2.17zm8.432-8.02c.04 2.198.348 3.873.918 5.025.57 1.15 1.437 1.727 2.6 1.727.528 0 .993-.084 1.395-.253.4-.17.74-.37 1.014-.603.316-.23.59-.515.823-.854l.477 1.205c-.254.36-.56.667-.92.92-.317.233-.708.44-1.172.62-.465.18-1.015.27-1.65.27-1.69 0-2.936-.73-3.74-2.19-.803-1.46-1.204-3.497-1.204-6.117 0-1.31.117-2.478.35-3.503.232-1.026.554-1.898.966-2.617.413-.718.904-1.262 1.475-1.632.57-.37 1.195-.553 1.87-.553.698 0 1.322.18 1.87.54.55.358 1.005.897 1.364 1.616.36.718.612 1.61.76 2.678.15 1.07.16 2.31.032 3.726h-7.23zm3.2-7.323c-.845 0-1.568.524-2.17 1.57-.603 1.046-.936 2.573-1 4.58h5.802c.127-2.134-.08-3.693-.618-4.675-.54-.983-1.21-1.475-2.013-1.475zM49.012 30V14.023h3.36c1.417 0 2.495.328 3.235.983.74.655 1.11 1.617 1.11 2.885 0 .805-.18 1.523-.54 2.157-.36.634-.93 1.13-1.712 1.49 1.036.296 1.79.77 2.267 1.427.475.655.713 1.468.713 2.44 0 1.586-.454 2.748-1.363 3.488-.91.74-2.124 1.11-3.645 1.11h-3.424zm1.46-14.804v5.928h1.84c.885 0 1.604-.248 2.153-.745.55-.5.825-1.307.825-2.427 0-1.014-.265-1.728-.793-2.14-.528-.412-1.257-.618-2.187-.618h-1.84zm0 7.037v6.626h1.965c1.035 0 1.88-.25 2.536-.747.655-.497.982-1.37.982-2.615 0-1.164-.3-1.998-.903-2.506-.602-.507-1.485-.76-2.647-.76H50.47zm13.694 8.084c-.697 0-1.34-.174-1.933-.523-.592-.35-1.104-.86-1.538-1.538-.434-.676-.777-1.526-1.03-2.55-.254-1.026-.38-2.226-.38-3.6 0-1.33.126-2.52.38-3.566.253-1.046.596-1.923 1.03-2.63.433-.71.945-1.253 1.537-1.633.592-.38 1.236-.57 1.934-.57s1.343.168 1.934.506c.592.34 1.105.85 1.538 1.538.433.69.776 1.545 1.03 2.57s.38 2.224.38 3.597c0 1.332-.126 2.515-.38 3.55-.254 1.036-.597 1.913-1.03 2.632-.433.72-.946 1.267-1.538 1.647-.59.38-1.236.57-1.933.57zm0-1.205c.93 0 1.728-.58 2.394-1.743.666-1.164 1-2.95 1-5.36 0-1.246-.09-2.32-.27-3.217-.18-.898-.424-1.632-.73-2.203-.306-.57-.666-.987-1.078-1.25-.412-.265-.85-.398-1.315-.398-.93 0-1.727.57-2.393 1.712-.665 1.142-.998 2.927-.998 5.358 0 1.246.09 2.32.268 3.217.18.896.423 1.63.73 2.2.306.57.665.995 1.077 1.27.413.274.85.41 1.317.41zm9.86-5.706c-.15 1.332-.334 2.44-.555 3.33-.22.887-.544 1.573-.966 2.06h6.086v-13.57h-4.057c-.022.867-.053 1.765-.096 2.695-.04.804-.094 1.687-.157 2.648-.063.96-.148 1.907-.254 2.836zM80.203 30h-8.685l-.19 3.138h-1.173v-4.343h.666c.487-.274.883-.92 1.19-1.933.306-1.015.544-2.283.713-3.804.105-.994.185-2.02.237-3.075.053-1.057.1-2.03.143-2.917.042-1.035.074-2.05.095-3.043h6.91v14.772h1.46v4.343h-1.175L80.203 30zm10.018 0v-7.29c-.21.19-.464.358-.76.506-.253.127-.56.243-.92.35-.36.105-.78.157-1.267.157-1.12 0-2.008-.37-2.663-1.11-.655-.74-.983-1.87-.983-3.39v-5.2h1.49v5.23c0 1.142.217 1.96.65 2.457.433.497 1.02.745 1.76.745.422 0 .803-.058 1.14-.174.34-.114.624-.257.857-.426.254-.19.487-.4.698-.634v-7.197h1.49V30h-1.49zm12.364-11.127c0-.422.012-.808.033-1.157.02-.348.053-.692.095-1.03h-.095c-.106.36-.233.703-.38 1.03-.15.328-.307.67-.476 1.03L96.56 30h-1.267V14.023h1.395v11.095c0 .423-.01.814-.032 1.173-.02.36-.053.72-.095 1.08h.096c.106-.36.233-.713.38-1.062.148-.35.307-.703.476-1.062l5.198-11.222h1.3V30h-1.427V18.873zm6.5 11.127h-1.49V14.023h1.49v7.513l5.356-7.513h1.458l-5.262 7.418 5.642 8.56h-1.648l-5.547-8.273V30z"/><path d="M7.055 46.3v21.366H5.47V46.3H1V45h10.556v1.3h-4.5zm10.112 6.847c-1.796.063-3.064 1.204-3.804 3.424v11.097h-1.49V51.69h1.363l.064 3.2h.095c.127-.38.3-.76.523-1.14.222-.38.49-.725.808-1.03.317-.307.682-.56 1.094-.762.412-.2.86-.322 1.347-.364v1.553zm5.42 13.63c.74 0 1.37-.306 1.887-.918.518-.615.924-1.355 1.22-2.22V59.23h-1.71c-1.333 0-2.316.317-2.95.95-.634.635-.95 1.65-.95 3.045 0 1.14.227 2.018.68 2.63.455.613 1.063.92 1.824.92zm3.55.89c-.062-.213-.13-.482-.205-.81-.074-.327-.132-.776-.174-1.347-.38.76-.856 1.363-1.427 1.807-.57.444-1.255.666-2.06.666-1.076 0-1.953-.407-2.63-1.22-.676-.815-1.014-1.95-1.014-3.41 0-1.71.455-3.005 1.363-3.882.91-.875 2.23-1.313 3.962-1.313h1.744V56.16c0-1.226-.222-2.114-.665-2.663-.444-.55-1.11-.825-1.997-.825-.677 0-1.31.155-1.902.46-.59.307-1.077.735-1.46 1.285l-.41-1.427c.317-.422.798-.797 1.443-1.125.644-.328 1.42-.49 2.33-.49 1.33 0 2.35.374 3.06 1.124.707.75 1.06 1.917 1.06 3.502v8.717c0 .55.032 1.104.096 1.664.062.56.147.988.252 1.284H26.14zm9.51-15.027c-.802 0-1.5.306-2.09.92-.593.612-1.09 1.425-1.49 2.44v11.666h-1.49V51.69h1.362L32 54.32h.063c.106-.296.27-.613.49-.95.223-.34.493-.656.81-.952.317-.296.687-.544 1.11-.745.422-.2.908-.3 1.457-.3 1.078 0 1.908.326 2.49.98.58.657.87 1.618.87 2.886v12.425h-1.49V55.43c0-1.86-.718-2.79-2.155-2.79zm9.194 15.343c-.886 0-1.6-.122-2.14-.365-.537-.243-.954-.49-1.25-.745l.317-1.3c.38.338.793.624 1.237.856.443.23 1.046.347 1.806.347.802 0 1.426-.264 1.87-.793.444-.528.665-1.13.665-1.806 0-.614-.137-1.174-.412-1.682-.274-.507-.613-.988-1.014-1.442-.404-.454-.84-.903-1.318-1.347-.475-.445-.914-.91-1.315-1.396-.402-.485-.74-1.003-1.015-1.552-.274-.55-.412-1.162-.412-1.838 0-.592.102-1.115.302-1.57.2-.453.465-.823.793-1.11.328-.284.697-.5 1.11-.648.412-.148.84-.222 1.283-.222.782 0 1.422.11 1.918.333.497.22.882.45 1.157.68l-.412 1.364c-.357-.38-.743-.672-1.155-.873-.412-.2-.893-.3-1.442-.3-.592 0-1.11.184-1.554.554-.444.37-.666.904-.666 1.602 0 .57.137 1.094.412 1.57.275.475.618.934 1.03 1.378.412.444.856.877 1.33 1.3.477.422.92.882 1.333 1.38.41.495.754 1.04 1.03 1.63.274.593.41 1.26.41 1.998 0 .634-.104 1.2-.316 1.696-.21.497-.496.914-.856 1.252-.36.34-.77.597-1.236.777-.464.18-.96.27-1.49.27zM52.8 45v22.666h-1.49V45h1.49zm6.72 21.778c.74 0 1.37-.307 1.886-.92.518-.612.925-1.352 1.22-2.218v-4.407h-1.71c-1.332 0-2.315.317-2.95.95-.633.635-.95 1.65-.95 3.045 0 1.14.227 2.018.68 2.63.456.613 1.063.92 1.824.92zm3.55.888c-.063-.212-.13-.48-.205-.81-.074-.326-.133-.775-.175-1.346-.38.76-.856 1.363-1.426 1.807-.57.444-1.258.666-2.06.666-1.08 0-1.956-.407-2.632-1.22-.676-.815-1.014-1.95-1.014-3.41 0-1.71.454-3.005 1.363-3.882.91-.875 2.23-1.313 3.96-1.313h1.746V56.16c0-1.226-.222-2.114-.666-2.663-.445-.55-1.11-.825-1.998-.825-.676 0-1.31.155-1.902.46-.592.307-1.078.735-1.458 1.285l-.412-1.427c.317-.422.797-.797 1.442-1.125.645-.328 1.42-.49 2.33-.49 1.33 0 2.35.374 3.06 1.124.707.75 1.06 1.917 1.06 3.502v8.717c0 .55.033 1.104.096 1.664.064.56.148.988.254 1.284H63.07zm9.162-.19c-.17.105-.37.19-.602.253-.233.06-.518.093-.856.093-.95 0-1.654-.312-2.108-.935-.455-.625-.682-1.433-.682-2.426v-11.6h-1.617V51.69h1.617l.16-3.17h1.33v3.17H72.2v1.172h-2.726v11.443c0 .803.122 1.385.365 1.744.242.357.606.537 1.092.537.233 0 .428-.027.587-.08.157-.052.29-.1.395-.142l.317 1.11zm3.107-7.545c.04 2.2.347 3.874.92 5.026.57 1.152 1.435 1.728 2.597 1.728.53 0 .993-.085 1.395-.254.402-.17.74-.37 1.014-.603.317-.233.592-.518.825-.856l.475 1.207c-.253.36-.56.665-.92.92-.316.23-.707.437-1.172.617-.465.18-1.014.27-1.648.27-1.69 0-2.938-.73-3.74-2.188-.804-1.458-1.206-3.497-1.206-6.118 0-1.31.116-2.478.35-3.503.23-1.025.553-1.896.965-2.615.412-.72.903-1.264 1.474-1.634.57-.37 1.193-.554 1.87-.554.697 0 1.32.18 1.87.54.55.358 1.003.897 1.363 1.615.36.72.612 1.612.76 2.68.148 1.066.16 2.308.032 3.724h-7.227zm3.2-7.32c-.845 0-1.57.522-2.17 1.57-.604 1.044-.936 2.57-1 4.58h5.8c.127-2.136-.08-3.694-.62-4.677-.537-.983-1.21-1.474-2.01-1.474z"/><path d="M10.144 84.634H3.392V106H1.807V83.334h9.922V106h-1.587V84.634zm5.8 13.63c.043 2.2.35 3.874.92 5.026.57 1.15 1.437 1.727 2.6 1.727.528 0 .993-.084 1.395-.253.4-.17.737-.37 1.012-.603.317-.23.592-.515.824-.854l.476 1.205c-.254.36-.56.667-.92.92-.317.233-.708.44-1.172.62-.464.18-1.014.27-1.648.27-1.69 0-2.937-.73-3.74-2.19-.804-1.46-1.205-3.497-1.205-6.117 0-1.31.116-2.478.35-3.503.23-1.026.553-1.898.965-2.617.413-.718.904-1.262 1.475-1.632.57-.37 1.194-.553 1.87-.553.697 0 1.32.18 1.87.54.55.358 1.004.897 1.363 1.616.36.718.613 1.61.76 2.678.15 1.07.16 2.31.033 3.726h-7.228zm3.203-7.322c-.846 0-1.57.524-2.172 1.57-.602 1.046-.935 2.573-.998 4.58h5.8c.128-2.134-.078-3.693-.617-4.675-.54-.983-1.21-1.475-2.013-1.475zm11.285 14.17c1.014 0 1.828-.607 2.44-1.822.614-1.216.92-3.09.92-5.627 0-2.113-.264-3.75-.792-4.914-.53-1.164-1.258-1.745-2.188-1.745-.36 0-.702.09-1.03.27-.327.18-.634.417-.92.713-.284.294-.543.638-.776 1.03-.232.39-.433.797-.602 1.22v8.94c.317.654.708 1.14 1.173 1.457.465.317 1.056.475 1.775.475zm-.095 1.173c-.613 0-1.168-.132-1.664-.396-.497-.266-.893-.6-1.19-1v6.054h-1.49v-20.92h1.3l.128 2.63c.36-.76.836-1.44 1.428-2.044.592-.603 1.33-.904 2.22-.904.654 0 1.246.19 1.774.57.53.38.973.915 1.333 1.602.36.686.634 1.51.824 2.472.19.962.284 2.024.284 3.186 0 2.938-.454 5.13-1.363 6.578-.91 1.447-2.103 2.17-3.582 2.17zm8.432-8.02c.04 2.198.347 3.873.917 5.025.57 1.15 1.437 1.727 2.6 1.727.528 0 .993-.084 1.395-.253.4-.17.74-.37 1.014-.603.317-.23.592-.515.824-.854l.477 1.205c-.254.36-.56.667-.92.92-.317.233-.708.44-1.172.62-.465.18-1.015.27-1.65.27-1.69 0-2.936-.73-3.74-2.19-.803-1.46-1.204-3.497-1.204-6.117 0-1.31.118-2.478.35-3.503.233-1.026.555-1.898.967-2.617.413-.718.904-1.262 1.475-1.632.57-.37 1.195-.553 1.87-.553.698 0 1.322.18 1.87.54.55.358 1.005.897 1.364 1.616.36.718.613 1.61.76 2.678.15 1.07.16 2.31.033 3.726h-7.23zm3.2-7.323c-.846 0-1.57.524-2.17 1.57-.604 1.046-.937 2.573-1 4.58h5.8c.128-2.134-.08-3.693-.617-4.675-.54-.983-1.21-1.475-2.013-1.475zM50.31 106h-1.49V90.023h1.49v7.513l5.357-7.513h1.458L51.86 97.44l5.645 8.56h-1.65l-5.546-8.274V106zm11.35-5.548c-.107.91-.223 1.712-.35 2.41-.127.697-.3 1.284-.523 1.76-.222.475-.507.84-.856 1.093-.35.253-.787.38-1.316.38-.105 0-.19-.005-.253-.016-.063-.01-.126-.028-.19-.05-.084-.02-.147-.042-.19-.063l-.126-1.33c.02.02.073.04.158.062.064.02.244.03.54.03.486 0 .882-.374 1.19-1.124.305-.75.51-1.855.617-3.313.02-.317.04-.708.062-1.173.02-.464.048-.966.08-1.505.03-.54.058-1.1.08-1.68.02-.58.04-1.157.062-1.727.064-1.31.116-2.705.16-4.185h6.656V106h-1.49V91.196H62.1c-.042 1.29-.084 2.515-.126 3.677-.022.508-.043 1.025-.064 1.554-.02.528-.047 1.035-.08 1.52-.03.487-.063.947-.094 1.38-.032.433-.058.808-.08 1.125zm12.488 4.66c.74 0 1.37-.306 1.886-.92.518-.612.925-1.35 1.22-2.218v-4.406h-1.71c-1.332 0-2.315.317-2.95.95-.633.635-.95 1.65-.95 3.044 0 1.14.227 2.018.682 2.63.454.614 1.06.92 1.822.92zm3.55.888c-.063-.21-.13-.48-.205-.808-.073-.328-.13-.777-.174-1.348-.38.76-.857 1.363-1.427 1.807-.57.446-1.258.668-2.06.668-1.08 0-1.956-.407-2.632-1.22-.675-.814-1.013-1.95-1.013-3.408 0-1.713.454-3.007 1.363-3.884.91-.877 2.23-1.316 3.962-1.316h1.743v-1.997c0-1.226-.222-2.113-.666-2.663-.445-.55-1.11-.824-1.998-.824-.676 0-1.31.153-1.902.46-.592.306-1.078.734-1.458 1.283l-.412-1.428c.317-.423.798-.798 1.442-1.125.645-.328 1.42-.492 2.33-.492 1.332 0 2.35.375 3.06 1.126.707.75 1.06 1.918 1.06 3.503v8.718c0 .55.033 1.105.096 1.665.064.56.148.988.254 1.284H77.7zm6.69-6.594c-.15 1.332-.333 2.44-.555 3.33-.22.887-.544 1.573-.966 2.06h6.086v-13.57h-4.057c-.022.867-.053 1.765-.095 2.695-.042.804-.095 1.687-.16 2.648-.06.96-.146 1.907-.252 2.836zM90.565 106H81.88l-.19 3.138h-1.17v-4.343h.666c.486-.274.882-.92 1.188-1.933.307-1.015.545-2.283.714-3.804.105-.994.185-2.02.237-3.075.053-1.057.1-2.03.143-2.917.042-1.035.074-2.05.095-3.043h6.912v14.772h1.458v4.343H90.76L90.567 106zm6.912-.888c.74 0 1.368-.306 1.886-.92.517-.612.924-1.35 1.22-2.218v-4.406H98.87c-1.33 0-2.313.317-2.947.95-.634.635-.95 1.65-.95 3.044 0 1.14.226 2.018.68 2.63.455.614 1.063.92 1.824.92zm3.55.888c-.063-.21-.132-.48-.206-.808-.073-.328-.13-.777-.173-1.348-.38.76-.856 1.363-1.427 1.807-.57.446-1.256.668-2.06.668-1.077 0-1.954-.407-2.63-1.22-.677-.814-1.015-1.95-1.015-3.408 0-1.713.454-3.007 1.363-3.884.91-.877 2.23-1.316 3.963-1.316h1.745v-1.997c0-1.226-.222-2.113-.666-2.663-.444-.55-1.11-.824-1.998-.824-.675 0-1.31.153-1.9.46-.592.306-1.078.734-1.46 1.283l-.41-1.428c.316-.423.797-.798 1.44-1.125.646-.328 1.423-.492 2.33-.492 1.333 0 2.352.375 3.06 1.126.708.75 1.062 1.918 1.062 3.503v8.718c0 .55.032 1.105.095 1.665s.147.988.253 1.284h-1.362zm10.683 0v-7.29c-.21.19-.464.358-.76.506-.254.127-.56.243-.92.35-.36.105-.78.157-1.267.157-1.12 0-2.008-.37-2.663-1.11-.655-.74-.983-1.87-.983-3.39v-5.2h1.49v5.23c0 1.142.217 1.96.65 2.457.433.497 1.02.745 1.76.745.422 0 .802-.058 1.14-.174.34-.114.624-.257.856-.426.254-.19.486-.4.698-.634v-7.197h1.49V106h-1.49z"/><path d="M7.386 121.017c.845 0 1.553.16 2.124.476.57.317 1.025.666 1.363 1.046l-.412 1.55c-.357-.506-.79-.93-1.3-1.267-.505-.338-1.097-.507-1.773-.507-.74 0-1.4.238-1.98.713-.582.475-1.074 1.156-1.475 2.044-.4.888-.707 1.965-.918 3.233-.212 1.27-.317 2.695-.317 4.28 0 1.585.1 3.022.3 4.31.2 1.29.497 2.384.888 3.282.39.897.877 1.595 1.458 2.09.583.498 1.264.746 2.046.746.823 0 1.5-.158 2.03-.475.526-.316.96-.644 1.3-.982l.473 1.204c-.106.127-.275.28-.507.46-.233.18-.513.348-.84.507-.328.16-.698.295-1.11.412-.412.116-.87.174-1.38.174-.992 0-1.88-.27-2.66-.808-.783-.54-1.438-1.317-1.967-2.33-.53-1.016-.93-2.24-1.205-3.68-.275-1.436-.412-3.042-.412-4.817 0-1.774.142-3.38.427-4.817.286-1.437.698-2.663 1.237-3.678.54-1.014 1.194-1.796 1.965-2.345.77-.55 1.653-.825 2.646-.825zm-.57 27.865c-.402 0-.703-.053-.904-.16-.2-.104-.343-.178-.428-.22v-.92c.085.042.222.106.412.19.19.085.412.127.666.127.76 0 1.14-.298 1.14-.89 0-.55-.358-.824-1.077-.824h-.38l.35-2.314h.98l-.22 1.522c.612.042 1.045.222 1.3.54.253.316.38.686.38 1.108 0 .57-.2 1.02-.603 1.347-.4.327-.94.49-1.616.49zm7.132-12.617c.042 2.198.35 3.873.92 5.025.57 1.15 1.436 1.727 2.6 1.727.527 0 .992-.084 1.394-.253.4-.17.74-.37 1.014-.603.317-.23.592-.515.824-.854l.476 1.205c-.254.36-.56.667-.92.92-.317.233-.708.44-1.173.62-.465.18-1.014.27-1.648.27-1.69 0-2.938-.73-3.74-2.19-.804-1.46-1.205-3.497-1.205-6.117 0-1.31.116-2.478.35-3.503.23-1.026.553-1.898.965-2.617.412-.718.904-1.262 1.474-1.632.57-.37 1.192-.553 1.87-.553.696 0 1.32.18 1.87.54.55.358 1.003.897 1.362 1.616.36.718.613 1.61.76 2.678.15 1.07.16 2.31.033 3.726h-7.228zm3.202-7.323c-.846 0-1.57.524-2.172 1.57-.602 1.046-.935 2.573-.998 4.58h5.8c.128-2.134-.078-3.693-.617-4.675-.54-.983-1.21-1.475-2.013-1.475zm5.61-.92h1.522l2.536 10.335c.212.867.365 1.58.46 2.14.095.56.164 1.094.206 1.6h.095c.083-.506.18-1.04.283-1.6.106-.56.264-1.273.476-2.14l2.535-10.334h1.33L28.247 144h-1.523l-3.964-15.977zm12.522-3.137c-.296 0-.54-.095-.73-.285-.19-.19-.284-.434-.284-.73 0-.274.095-.517.285-.73.19-.21.433-.316.73-.316.274 0 .512.106.712.317.2.214.302.457.302.73 0 .297-.1.54-.302.73-.2.19-.438.286-.713.286zm.73 3.138V144h-1.49v-15.977h1.49zm8.844 1.458c-1.797.066-3.065 1.207-3.804 3.426V144h-1.49v-15.977h1.363l.063 3.202h.095c.127-.38.3-.76.523-1.14.222-.382.492-.725.81-1.032.316-.306.68-.56 1.092-.76.412-.2.86-.323 1.348-.365v1.553zm3.2-4.594c-.295 0-.538-.095-.728-.285-.19-.19-.285-.433-.285-.73 0-.273.095-.516.285-.73.19-.21.433-.315.73-.315.274 0 .512.106.712.317.2.213.302.456.302.73 0 .296-.1.54-.302.73-.2.19-.438.285-.713.285zm.73 3.138V144h-1.49v-15.977h1.49z"/></svg>
